/* XPM */
static char *bastet[] = {
/* columns rows colors chars-per-pixel */
"32 32 42 1 ",
"  c #27353F",
". c #28353F",
"X c #2E353F",
"o c #30353E",
"O c #37353E",
"+ c #38353E",
"@ c #3D353D",
"# c #43353D",
"$ c #47353C",
"% c #48353C",
"& c #4A353C",
"* c #4C353C",
"= c #51353B",
"- c #59343B",
"; c #5D343A",
": c #60343A",
"> c #62343A",
", c #733438",
"< c #033642",
"1 c #043440",
"2 c #073642",
"3 c #0A3642",
"4 c #0C3642",
"5 c #133641",
"6 c #163641",
"7 c #193640",
"8 c #1C3640",
"9 c #1F3640",
"0 c #213640",
"q c #456669",
"w c #813437",
"e c #903336",
"r c #913336",
"t c #943335",
"y c #AB3333",
"u c #DC322F",
"i c #DD322F",
"p c #C33231",
"a c #C73231",
"s c #CC3230",
"d c #E0322F",
"f c #E4322E",
/* pixels */
"22222222222222222222222222222222",
"22222222222222222222222222222222",
"22222222222222222232222222222222",
"2 7X332234o4226.25@323232 622222",
"2#%%+*X .X,8<20>@6$3O$.#+@X 6022",
"<+#;>-O%%5%5220@@0$4$.=+5$;83622",
"2 7o+#8. 5OX226=#7*5o%.#+X  6822",
"22222322222322232232332333222222",
"22222222222222222222222222222222",
"22222222222222222222222222222222",
"22222222222222222222222222222222",
"22222222222222222222222222222222",
"22222222222222222222222222222222",
"222222222;trrrrrrrrw622222222222",
"222222222rfddidddiia022222222222",
"222222222rdiiiiiiiia822222222222",
"222222223rdiiiuuiuip022222222222",
"222222222tfiiiiuiiip7<<<<2222222",
"222222222:rrrryiiiia>====0222222",
"22222222222222=uiiiiuiiuu=<22222",
"2222222222222<=uuuuuuuuuu=<22222",
"2222222222222<=iuuuuuuuiu=<22222",
"2222222222222<=iiiiiiiiii=<22222",
"22222222222222&pppapppppa$<22222",
"2222222222222238 888 88885222222",
"22222222222222222<222<3222222222",
"22222222222222222222222222222222",
"22222222222222222222222222222222",
"22222222222222222222222222222222",
"22222222222222222222222222222222",
"111111111111111111111111111111<2",
"qqqqqqqqqqqqqqqqqqqqqqqqqqqqqqqq"
};
